<?xml version="1.0" encoding="utf-8"?>
<!-- Generator: Adobe Illustrator 16.0.4, SVG Export Plug-In . SVG Version: 6.00 Build 0)  -->
<!DOCTYPE svg PUBLIC "-//W3C//DTD SVG 1.1//EN" "http://www.w3.org/Graphics/SVG/1.1/DTD/svg11.dtd">
<svg version="1.1" id="Layer_1" xmlns="http://www.w3.org/2000/svg" xmlns:xlink="http://www.w3.org/1999/xlink" x="0px" y="0px"
	 width="20px" height="20px" viewBox="0 0 20 20" enable-background="new 0 0 20 20" xml:space="preserve">
<path fill="#E09E3D" d="M2,10c0-1.71,1.29-3,3-3h4V5H5c-2.76,0-5,2.24-5,5s2.24,5,5,5h4v-2H5C3.29,13,2,11.71,2,10z M6,11h8V9H6V11z
	 M15,5h-4v2h4c1.71,0,3,1.29,3,3s-1.29,3-3,3h-4v2h4c2.76,0,5-2.24,5-5S17.76,5,15,5z"/>
</svg>
