<?xml version="1.0" encoding="utf-8"?>
<!-- Generator: Adobe Illustrator 16.0.4, SVG Export Plug-In . SVG Version: 6.00 Build 0)  -->
<!DOCTYPE svg PUBLIC "-//W3C//DTD SVG 1.1//EN" "http://www.w3.org/Graphics/SVG/1.1/DTD/svg11.dtd">
<svg version="1.1" id="Layer_1" xmlns="http://www.w3.org/2000/svg" xmlns:xlink="http://www.w3.org/1999/xlink" x="0px" y="0px"
	 width="753.23px" height="612px" viewBox="19.385 0 753.23 612" enable-background="new 19.385 0 753.23 612" xml:space="preserve"
	>
<g id="icon_rectangle_rounded" transform="translate(1288 433)">
	<path id="Path_5" fill="#000387" d="M-609.538-385.923c25.968,0.077,46.999,21.109,47.077,47.077V84.847
		c-0.078,25.968-21.109,46.999-47.077,47.076h-564.923c-25.968-0.077-47-21.108-47.077-47.076v-423.692
		c0.077-25.968,21.109-47,47.077-47.077H-609.538 M-609.538-433h-564.923c-51.936,0.155-93.999,42.219-94.154,94.154V84.847
		c0.155,51.935,42.219,93.998,94.154,94.153h564.923c51.935-0.155,93.999-42.219,94.153-94.153v-423.692
		C-515.539-390.781-557.604-432.845-609.538-433z"/>
</g>
</svg>
