<svg id="Group_3" data-name="Group 3" xmlns="http://www.w3.org/2000/svg" viewBox="948 528 24 24"><defs><style>.cls-1 {fill: #db8d3b;}.cls-1, .cls-2 {fill-rule: evenodd;}.cls-2 {fill: #fff;}</style></defs><path id="Path_7" data-name="Path 7" class="cls-1" d="M12,0A12,12,0,1,1,0,12,12,12,0,0,1,12,0Z" transform="translate(948 528)"/><path id="Path_8" data-name="Path 8" class="cls-2" d="M13.413,15.823H12.184V11.742a1.663,1.663,0,0,0-.834-1.452L8.181,8.5c3.507-1.973,3.427-1.891,3.691-2.261h0a1.678,1.678,0,0,0,.312-.98V1.177h1.229a.585.585,0,0,0,.576-.594.585.585,0,0,0-.576-.594H.587A.585.585,0,0,0,.011.583a.585.585,0,0,0,.576.594H1.778V5.258a1.683,1.683,0,0,0,.312.981h0c.263.369.181.286,3.691,2.261l-3.17,1.79a1.664,1.664,0,0,0-.833,1.452v4.081H.587a.594.594,0,0,0,0,1.188H13.413a.594.594,0,0,0,0-1.188ZM3,5V1h8V5Zm8,8H3l-.07-1.258a.47.47,0,0,1,.235-.41L7,9l3.8,2.331a.473.473,0,0,1,.236.411Z" transform="translate(952.989 531.011)"/></svg>