<svg id="Group_2" data-name="Group 2" xmlns="http://www.w3.org/2000/svg" viewBox="948 528 24 24">
  <defs>
    <style>
      .cls-1 {
        fill: #747474;
      }

      .cls-1, .cls-2 {
        fill-rule: evenodd;
      }

      .cls-2 {
        fill: #fff;
      }
    </style>
  </defs>
  <path id="Path_5" data-name="Path 5" class="cls-1" d="M12,0A12,12,0,1,1,0,12,12,12,0,0,1,12,0Z" transform="translate(948 528)"/>
  <path id="Path_6" data-name="Path 6" class="cls-2" d="M4.275,15.74h0a3.937,3.937,0,0,1-2.749-1.1A3.973,3.973,0,0,1,.405,11.87,3.725,3.725,0,0,1,1.7,9.29L10,1a2.566,2.566,0,0,1,3.735.12,2.625,2.625,0,0,1,0,3.87l-6.88,6.88a2.121,2.121,0,0,1-2.58,0,1.535,1.535,0,0,1,0-2.15l5.987-5.94.463.78L5.565,9.72c-.846.846-1.173.977-.43,1.72.493.493.847.013,1.29-.43l6.88-6.88a1.5,1.5,0,0,0,0-2.15,2.863,2.863,0,0,0-1.29-.86,1.893,1.893,0,0,0-1.29.43l-8.6,8.6a2.34,2.34,0,0,0-.86,1.72,3.336,3.336,0,0,0,.86,2.15,3.364,3.364,0,0,0,2.15.86,3.357,3.357,0,0,0,2.15-.86l6.88-6.88.43.86-6.88,6.88A3.353,3.353,0,0,1,4.275,15.74Z" transform="translate(952.595 531.748)"/>
</svg>
